# xmcd CD database file
#
# Track frame offsets:
#	183
#	11233
#	26735
#	33758
#	55113
#	73495
#	87170
#	94808
#	110293
#	122908
#	130265
#	144693
#	160958
#	175600
#	191015
#	206358
#
# Disc length: 2948 seconds
#
# Revision: 2
# Processed by: cddbd v1.5.2PL0 Copyright (c) Steve Scherf et al.
# Submitted via: CDex 1.51
#
DISCID=e00b8210
DTITLE=Louis Armstrong - Louis Armstrong's Greatest Hits
DYEAR=1988
DGENRE=Blues
TTITLE0=Hello Dolly
TTITLE1=Mack The Knife
TTITLE2=High Society
TTITLE3=Jeepers Creepers
TTITLE4=Ain't Misbehavin'
TTITLE5=Honeysuckle Rose
TTITLE6=Blueberry Hill
TTITLE7=When It's Sleepy Time Down South
TTITLE8=Tiger Rag
TTITLE9=When The Saint Go Marching In
TTITLE10=Cabaret
TTITLE11=C'est Si Bon (It's So Good)
TTITLE12=Can Any Body Explain
TTITLE13=On The Sunny Side Of The Street
TTITLE14=Basin Street Blues
TTITLE15=You Rascal You
EXTD=YEAR: 1988
EXTT0=
EXTT1=
EXTT2=
EXTT3=
EXTT4=
EXTT5=
EXTT6=
EXTT7=
EXTT8=
EXTT9=
EXTT10=
EXTT11=
EXTT12=
EXTT13=
EXTT14=
EXTT15=
PLAYORDER=
